<svg width="396" height="231" viewBox="0 0 396 231" fill="none" xmlns="http://www.w3.org/2000/svg">
<mask id="path-1-inside-1_22_2" fill="white">
<path fill-rule="evenodd" clip-rule="evenodd" d="M242.56 110L395.5 135.755L304.681 177.525L372.315 189.877L319.711 220.318L245.26 204.854L189.5 230.5L0 192.5L68.7222 169.126L8.28017 156.794L78.4181 134.411L138.381 145.434L242.56 110Z"/>
</mask>
<path fill-rule="evenodd" clip-rule="evenodd" d="M242.56 110L395.5 135.755L304.681 177.525L372.315 189.877L319.711 220.318L245.26 204.854L189.5 230.5L0 192.5L68.7222 169.126L8.28017 156.794L78.4181 134.411L138.381 145.434L242.56 110Z" fill="white"/>
<path d="M395.5 135.755L396.336 137.572L402.231 134.86L395.832 133.782L395.5 135.755ZM242.56 110L242.892 108.028L242.394 107.944L241.916 108.107L242.56 110ZM304.681 177.525L303.845 175.708L298.091 178.354L304.322 179.492L304.681 177.525ZM372.315 189.877L373.316 191.608L378.02 188.886L372.674 187.91L372.315 189.877ZM319.711 220.318L319.305 222.276L320.052 222.431L320.713 222.049L319.711 220.318ZM245.26 204.854L245.667 202.896L245.023 202.762L244.425 203.037L245.26 204.854ZM189.5 230.5L189.107 232.461L189.745 232.589L190.336 232.317L189.5 230.5ZM0 192.5L-0.644012 190.607L-7.68027 193L-0.393227 194.461L0 192.5ZM68.7222 169.126L69.3662 171.02L76.3556 168.642L69.122 167.166L68.7222 169.126ZM8.28017 156.794L7.67214 154.889L0.365543 157.22L7.88035 158.754L8.28017 156.794ZM78.4181 134.411L78.7797 132.444L78.2871 132.354L77.8101 132.506L78.4181 134.411ZM138.381 145.434L138.02 147.401L138.532 147.495L139.025 147.327L138.381 145.434ZM395.832 133.782L242.892 108.028L242.228 111.972L395.168 137.727L395.832 133.782ZM305.517 179.342L396.336 137.572L394.664 133.937L303.845 175.708L305.517 179.342ZM372.674 187.91L305.04 175.557L304.322 179.492L371.955 191.845L372.674 187.91ZM320.713 222.049L373.316 191.608L371.313 188.146L318.71 218.587L320.713 222.049ZM244.854 206.812L319.305 222.276L320.118 218.359L245.667 202.896L244.854 206.812ZM190.336 232.317L246.096 206.671L244.425 203.037L188.664 228.683L190.336 232.317ZM-0.393227 194.461L189.107 232.461L189.893 228.539L0.393227 190.539L-0.393227 194.461ZM68.0782 167.233L-0.644012 190.607L0.644012 194.393L69.3662 171.02L68.0782 167.233ZM69.122 167.166L8.68 154.834L7.88035 158.754L68.3224 171.086L69.122 167.166ZM8.88821 158.699L79.0261 136.317L77.8101 132.506L7.67214 154.889L8.88821 158.699ZM78.0565 136.378L138.02 147.401L138.743 143.466L78.7797 132.444L78.0565 136.378ZM241.916 108.107L137.737 143.54L139.025 147.327L243.204 111.893L241.916 108.107Z" fill="black" mask="url(#path-1-inside-1_22_2)"/>
<ellipse rx="9.11861" ry="5.25225" transform="matrix(0.997408 0.103184 -0.318468 0.951554 81.0431 188.076)" fill="black"/>
<ellipse rx="9.11067" ry="5.26756" transform="matrix(0.996795 0.107595 -0.332681 0.947188 125.164 197.802)" fill="black"/>
<ellipse rx="9.07605" ry="5.33368" transform="matrix(0.994247 0.124582 -0.385727 0.92878 169.03 207.455)" fill="black"/>
<path d="M196.289 126.354L351.664 155.004M73.0603 168.433L245.5 203.5L301.5 177.5L136.379 146.498L73.0603 168.433Z" stroke="black" stroke-width="2"/>
</svg>
