<svg width="239" height="118" viewBox="0 0 239 118" fill="none" xmlns="http://www.w3.org/2000/svg">
<mask id="path-1-inside-1_19_54" fill="white">
<path fill-rule="evenodd" clip-rule="evenodd" d="M65.8257 0L238.785 24.5322L238.785 93.7132L180.421 118L0 85.1269V15.4553L65.8257 0Z"/>
</mask>
<path fill-rule="evenodd" clip-rule="evenodd" d="M65.8257 0L238.785 24.5322L238.785 93.7132L180.421 118L0 85.1269V15.4553L65.8257 0Z" fill="white"/>
<path d="M238.785 24.5322H240.785V22.7959L239.066 22.552L238.785 24.5322ZM65.8257 0L66.1066 -1.98018L65.7344 -2.03296L65.3685 -1.94705L65.8257 0ZM238.785 93.7132L239.553 95.5597L240.785 95.0472V93.7132H238.785ZM180.421 118L180.063 119.968L180.644 120.074L181.189 119.847L180.421 118ZM0 85.1269H-2V86.7954L-0.358503 87.0945L0 85.1269ZM0 15.4553L-0.457151 13.5082L-2 13.8705V15.4553H0ZM239.066 22.552L66.1066 -1.98018L65.5448 1.98018L238.504 26.5124L239.066 22.552ZM236.785 24.5322L236.785 93.7132H240.785L240.785 24.5322H236.785ZM238.016 91.8667L179.653 116.154L181.189 119.847L239.553 95.5597L238.016 91.8667ZM-0.358503 87.0945L180.063 119.968L180.78 116.032L0.358503 83.1593L-0.358503 87.0945ZM-2 15.4553V85.1269H2V15.4553H-2ZM65.3685 -1.94705L-0.457151 13.5082L0.457151 17.4024L66.2828 1.94705L65.3685 -1.94705Z" fill="black" mask="url(#path-1-inside-1_19_54)"/>
<path d="M0.371338 16.1912L180.894 44.4032M180.894 44.4032L238.042 25.0228M180.894 44.4032V116.283" stroke="black" stroke-width="2"/>
<ellipse rx="9.42339" ry="9.25785" transform="matrix(1.00531 -0.0300605 0.0351076 0.99269 40.8333 58.393)" fill="black"/>
<ellipse rx="9.42572" ry="9.25521" transform="matrix(1.0053 -0.0223658 0.0261349 0.993208 88.8538 66.14)" fill="black"/>
<ellipse rx="9.43387" ry="9.24596" transform="matrix(1.0047 0.00714436 -0.00836391 0.994463 136.59 73.8132)" fill="black"/>
</svg>
